<svg width="14" height="14" viewBox="0 0 14 14" fill="none" xmlns="http://www.w3.org/2000/svg">
<g clip-path="url(#clip0_570_6570)">
<path d="M9.78279 2.62508L9.09591 1.73453C8.95909 1.55846 8.78399 1.41584 8.58388 1.31747C8.38377 1.2191 8.16389 1.16756 7.94091 1.16675L6.06258 1.16675C5.8396 1.16756 5.61973 1.2191 5.41962 1.31747C5.2195 1.41584 5.0444 1.55846 4.90758 1.73453L4.2207 2.62508H9.78279Z" fill="#2F9396"/>
<path d="M7.00109 9.91672C8.07497 9.91672 8.94553 9.04616 8.94553 7.97228C8.94553 6.89839 8.07497 6.02783 7.00109 6.02783C5.9272 6.02783 5.05664 6.89839 5.05664 7.97228C5.05664 9.04616 5.9272 9.91672 7.00109 9.91672Z" fill="#2F9396"/>
<path d="M10.4041 3.59729H3.59852C2.95414 3.59806 2.33636 3.85439 1.88071 4.31004C1.42506 4.76569 1.16874 5.38346 1.16797 6.02785L1.16797 10.4028C1.16874 11.0472 1.42506 11.665 1.88071 12.1207C2.33636 12.5763 2.95414 12.8326 3.59852 12.8334H10.4041C11.0485 12.8326 11.6662 12.5763 12.1219 12.1207C12.5775 11.665 12.8339 11.0472 12.8346 10.4028V6.02785C12.8339 5.38346 12.5775 4.76569 12.1219 4.31004C11.6662 3.85439 11.0485 3.59806 10.4041 3.59729ZM7.0013 10.889C6.42444 10.889 5.86053 10.7179 5.38089 10.3974C4.90125 10.0769 4.52741 9.6214 4.30665 9.08845C4.0859 8.5555 4.02814 7.96905 4.14068 7.40328C4.25322 6.8375 4.531 6.3178 4.93891 5.9099C5.34681 5.50199 5.86651 5.22421 6.43229 5.11167C6.99807 4.99913 7.58451 5.05689 8.11746 5.27764C8.65041 5.4984 9.10593 5.87223 9.42642 6.35188C9.74691 6.83152 9.91797 7.39543 9.91797 7.97229C9.9172 8.7456 9.60966 9.48702 9.06284 10.0338C8.51603 10.5806 7.77461 10.8882 7.0013 10.889Z" fill="#2F9396"/>
</g>
<defs>
<clipPath id="clip0_570_6570">
<rect width="11.6667" height="11.6667" fill="white" transform="translate(1.16797 1.16675)"/>
</clipPath>
</defs>
</svg>
