<svg width="19" height="19" viewBox="0 0 19 19" fill="none" xmlns="http://www.w3.org/2000/svg">
<g clip-path="url(#clip0_57_297)">
<path d="M8.70703 3.16668H3.16536C2.74544 3.16668 2.34271 3.3335 2.04578 3.63043C1.74885 3.92736 1.58203 4.33009 1.58203 4.75002V15.8333C1.58203 16.2533 1.74885 16.656 2.04578 16.9529C2.34271 17.2499 2.74544 17.4167 3.16536 17.4167H14.2487C14.6686 17.4167 15.0714 17.2499 15.3683 16.9529C15.6652 16.656 15.832 16.2533 15.832 15.8333V10.2917M14.6445 1.97918C14.9595 1.66424 15.3866 1.4873 15.832 1.4873C16.2774 1.4873 16.7046 1.66424 17.0195 1.97918C17.3345 2.29413 17.5114 2.72128 17.5114 3.16668C17.5114 3.61208 17.3345 4.03924 17.0195 4.35418L9.4987 11.875L6.33203 12.6667L7.1237 9.50002L14.6445 1.97918Z" stroke="#1E1E1E" stroke-width="1.5" stroke-linecap="round" stroke-linejoin="round"/>
</g>
<defs>
<clipPath id="clip0_57_297">
<rect width="19" height="19" fill="white"/>
</clipPath>
</defs>
</svg>
