<?xml version="1.0" standalone="no"?>
<!DOCTYPE svg PUBLIC "-//W3C//DTD SVG 20010904//EN"
 "http://www.w3.org/TR/2001/REC-SVG-20010904/DTD/svg10.dtd">
<svg version="1.0" xmlns="http://www.w3.org/2000/svg"
 width="4061.000000pt" height="4096.000000pt" viewBox="0 0 4061.000000 4096.000000"
 preserveAspectRatio="xMidYMid meet">

<g transform="translate(0.000000,4096.000000) scale(0.100000,-0.100000)"
fill="#000000" stroke="none">
<path d="M4405 39379 c-654 -119 -1218 -374 -1730 -783 -138 -111 -442 -416
-557 -561 -234 -294 -415 -602 -551 -936 -111 -272 -173 -487 -239 -834 -11
-58 -13 -2781 -13 -15985 l0 -15915 32 -160 c168 -831 503 -1485 1033 -2015
536 -537 1217 -880 2029 -1026 l135 -24 15911 0 15911 0 134 25 c473 90 938
264 1318 494 930 562 1529 1474 1722 2620 20 115 20 281 20 16008 l0 15892
-25 138 c-236 1282 -1025 2289 -2180 2781 -255 108 -577 203 -885 259 l-155
28 -15930 1 c-9515 1 -15950 -2 -15980 -7z m31861 -274 c618 -82 1165 -292
1626 -623 594 -427 1012 -1004 1247 -1722 50 -153 104 -374 131 -535 20 -120
20 -146 20 -15940 l0 -15820 -25 -150 c-114 -670 -371 -1243 -771 -1720 -508
-606 -1233 -1011 -2086 -1165 -111 -20 -147 -20 -15959 -20 l-15848 0 -138 25
c-297 55 -517 117 -775 221 -780 312 -1390 882 -1753 1638 -154 320 -247 608
-322 996 l-28 145 0 15855 0 15855 28 140 c56 276 117 485 207 704 323 786
910 1421 1660 1796 285 143 569 241 865 299 44 9 100 20 125 25 27 5 6508 9
15866 10 13842 1 15834 -1 15930 -14z"/>
<path d="M19820 32695 c-856 -56 -1664 -247 -2460 -582 -1119 -471 -2185
-1253 -2981 -2188 -681 -799 -1180 -1672 -1506 -2630 -251 -742 -381 -1502
-386 -2270 l-2 -280 245 -7 c135 -3 679 -12 1210 -18 531 -6 1278 -15 1660
-20 382 -5 976 -12 1320 -16 l625 -6 48 49 48 49 14 135 c67 640 258 1164 581
1597 100 135 299 342 429 445 374 300 811 482 1330 553 167 24 564 23 735 0
372 -51 671 -141 995 -301 766 -377 1299 -1064 1454 -1875 40 -207 46 -289 45
-575 0 -238 -3 -302 -22 -425 -120 -773 -486 -1304 -1262 -1829 -167 -113
-320 -207 -685 -421 -746 -438 -984 -606 -1360 -957 -507 -474 -935 -1052
-1255 -1698 -434 -875 -664 -1818 -746 -3050 -30 -450 -18 -1584 16 -1605 6
-4 282 -10 613 -14 636 -7 1390 -16 3247 -42 l1135 -15 17 22 c46 56 62 251
54 659 -23 1129 -23 1130 26 1330 53 216 142 375 297 531 146 146 262 220 631
401 343 169 466 237 625 346 1291 886 2220 1877 2885 3077 1039 1877 1229
4103 529 6188 -520 1550 -1496 2906 -2794 3884 -600 452 -1285 826 -1979 1079
-232 85 -249 91 -460 155 -586 176 -1170 280 -1826 324 -261 18 -817 18 -1090
0z"/>
<path d="M20120 13089 c-180 -18 -329 -47 -485 -96 -475 -150 -948 -475 -1291
-888 -144 -174 -301 -436 -380 -635 -118 -300 -172 -657 -161 -1060 11 -351
68 -630 194 -940 195 -482 544 -902 994 -1196 619 -404 1399 -535 2108 -354
316 81 669 256 943 470 111 87 367 342 460 460 297 375 476 776 555 1240 26
152 25 589 0 745 -49 291 -127 537 -251 785 -460 920 -1401 1488 -2451 1479
-82 -1 -188 -5 -235 -10z"/>
</g>
</svg>
