<?xml version="1.0" standalone="no"?>
<!DOCTYPE svg PUBLIC "-//W3C//DTD SVG 20010904//EN"
 "http://www.w3.org/TR/2001/REC-SVG-20010904/DTD/svg10.dtd">
<svg version="1.0" xmlns="http://www.w3.org/2000/svg"
 width="2050.000000pt" height="2050.000000pt" viewBox="0 0 2050.000000 2050.000000"
 preserveAspectRatio="xMidYMid meet">

<g transform="translate(0.000000,2050.000000) scale(0.100000,-0.100000)"
fill="#000000" stroke="none">
<path d="M4100 19244 c-19 -2 -80 -9 -135 -15 -767 -82 -1501 -435 -2055 -989
-583 -582 -928 -1314 -1011 -2143 -18 -182 -7 -626 20 -802 66 -425 192 -805
387 -1166 314 -579 806 -1072 1387 -1389 l97 -54 0 -4788 c0 -3307 3 -4819 11
-4886 33 -305 158 -569 370 -781 212 -212 472 -337 775 -371 72 -8 1474 -10
5169 -8 l5070 3 97 23 c525 121 899 503 1005 1027 17 86 18 359 18 6815 0
6456 -1 6729 -18 6815 -96 476 -425 852 -869 994 -207 66 72 61 -3687 61
l-3416 1 -82 123 c-504 755 -1292 1284 -2181 1466 -247 50 -356 61 -647 65
-148 2 -286 1 -305 -1z m690 -438 c58 -10 157 -29 220 -43 1138 -252 2038
-1137 2310 -2273 98 -413 106 -893 20 -1308 -193 -939 -813 -1731 -1681 -2146
-387 -185 -772 -278 -1209 -293 -721 -24 -1432 214 -2005 672 -130 103 -359
332 -463 463 -341 427 -561 927 -643 1462 -27 174 -37 545 -20 727 88 936 604
1782 1398 2289 384 246 815 400 1283 460 148 19 647 12 790 -10z m9455 -1659
c171 -52 344 -165 446 -295 117 -147 174 -293 190 -491 7 -84 9 -2323 7 -6736
l-3 -6610 -23 -85 c-94 -349 -384 -606 -732 -649 -118 -15 -10042 -15 -10160
0 -349 43 -648 309 -730 649 -20 85 -20 94 -20 4828 0 2608 2 4742 5 4742 2 0
64 -18 137 -40 741 -222 1540 -188 2263 97 791 312 1450 915 1831 1674 322
644 436 1385 323 2104 -37 235 -135 582 -215 764 -13 29 -24 57 -24 62 0 5
1402 8 3323 6 3163 -2 3325 -3 3382 -20z"/>
<path d="M2820 17824 c-53 -23 -88 -61 -127 -138 -88 -173 -176 -442 -223
-676 -46 -230 -55 -332 -54 -605 1 -205 5 -276 23 -395 54 -352 127 -590 276
-895 304 -624 822 -1097 1465 -1340 153 -58 194 -58 345 -1 357 135 662 333
936 606 229 228 390 453 529 735 133 271 224 562 271 861 27 177 37 557 19
731 -32 314 -113 628 -235 905 -60 136 -76 162 -126 195 -36 24 -53 28 -108
28 -58 0 -83 -8 -199 -58 -164 -70 -387 -146 -552 -186 -660 -163 -1289 -102
-1987 193 -143 60 -189 68 -253 40z m355 -529 c470 -169 903 -238 1342 -214
327 17 607 74 958 195 105 36 199 66 210 67 17 2 26 -16 62 -123 88 -265 126
-507 126 -800 0 -405 -78 -742 -257 -1105 -134 -271 -269 -457 -483 -666 -209
-204 -446 -360 -716 -470 -58 -23 -59 -23 -110 -5 -85 29 -286 132 -387 197
-488 315 -854 829 -1006 1414 -58 222 -77 379 -78 630 0 229 13 355 55 554 20
93 92 329 111 364 11 22 1 24 173 -38z"/>
<path d="M8635 15976 c-68 -30 -124 -114 -125 -187 0 -79 45 -155 113 -192
l42 -22 2740 -3 c1960 -2 2755 0 2791 8 60 13 123 61 148 114 35 74 14 188
-46 243 -61 57 149 53 -2865 53 -2280 -1 -2773 -3 -2798 -14z"/>
<path d="M8481 14465 c-51 -16 -107 -66 -127 -112 -21 -48 -18 -137 6 -182 24
-48 70 -87 118 -101 26 -8 887 -10 2894 -8 l2856 3 44 30 c75 53 110 165 77
252 -18 48 -79 102 -133 118 -72 22 -5666 21 -5735 0z"/>
<path d="M7279 12937 c-148 -78 -145 -290 5 -370 l41 -22 3440 0 3440 0 40 22
c77 41 115 103 115 188 0 84 -39 148 -112 186 -36 19 -116 19 -3481 19 l-3444
0 -44 -23z"/>
<path d="M3882 11437 c-84 -31 -141 -111 -142 -198 0 -63 40 -139 92 -175 l41
-29 5167 -3 5167 -2 44 23 c64 34 102 93 107 166 2 32 -1 75 -7 94 -15 46 -88
112 -137 126 -59 16 -10287 14 -10332 -2z"/>
<path d="M3905 9931 c-75 -19 -130 -68 -154 -140 -32 -96 12 -205 102 -254
l42 -22 5155 0 c5013 0 5156 1 5190 19 82 43 120 104 120 191 0 101 -66 184
-162 205 -57 12 -10243 13 -10293 1z"/>
<path d="M3875 8404 c-110 -40 -165 -172 -116 -279 22 -50 79 -101 128 -115
27 -8 1502 -10 5183 -8 l5145 3 40 21 c22 11 53 40 70 63 24 34 30 54 33 109
5 88 -23 144 -93 187 l-48 30 -5151 2 c-4487 1 -5156 0 -5191 -13z"/>
<path d="M3865 6881 c-140 -65 -167 -247 -52 -348 20 -18 53 -37 74 -42 54
-15 10273 -15 10326 0 47 13 115 72 134 116 36 88 3 204 -75 258 l-44 30
-5161 2 c-5008 3 -5163 2 -5202 -16z"/>
<path d="M3876 5375 c-176 -63 -179 -316 -4 -389 34 -14 553 -16 5181 -16
l5143 0 53 26 c34 17 62 41 79 67 23 35 27 51 27 117 0 66 -4 82 -27 117 -17
26 -45 50 -79 67 l-53 26 -5140 0 c-4340 -1 -5147 -3 -5180 -15z"/>
<path d="M3865 3856 c-103 -46 -153 -179 -106 -282 22 -49 78 -97 130 -113 29
-8 1352 -11 5163 -11 4642 0 5129 1 5171 16 48 16 110 75 127 120 6 14 10 50
10 80 0 88 -44 156 -122 189 -34 13 -561 15 -5190 15 -4265 -1 -5158 -3 -5183
-14z"/>
<path d="M16731 17529 c-306 -66 -559 -239 -723 -494 -60 -93 -80 -133 -117
-239 -66 -187 -61 378 -61 -6614 l0 -6356 471 -920 c259 -507 480 -932 492
-944 87 -94 248 -85 327 18 15 19 235 443 489 941 l461 906 0 5326 0 5327 410
0 410 0 0 -1770 c0 -1721 1 -1772 19 -1808 38 -73 102 -112 186 -112 102 0
184 66 205 164 8 36 10 603 8 1921 l-3 1870 -28 47 c-18 31 -44 57 -75 75
l-47 28 -542 3 -542 3 -3 857 c-3 850 -4 858 -26 935 -60 214 -148 370 -292
517 -153 157 -315 251 -529 307 -136 36 -355 42 -490 12z m424 -429 c187 -58
345 -196 430 -375 66 -139 65 -126 65 -1024 l0 -811 -700 0 -700 0 0 811 c0
898 -1 885 65 1024 95 200 271 340 490 391 87 20 260 12 350 -16z m495 -7380
l0 -4750 -700 0 -700 0 0 4750 0 4750 700 0 700 0 0 -4750z m0 -5395 l0 -225
-700 0 -700 0 0 225 0 225 700 0 700 0 0 -225z m-132 -654 c-12 -32 -564
-1101 -568 -1101 -4 0 -556 1069 -568 1101 -2 5 244 9 568 9 324 0 570 -4 568
-9z"/>
</g>
</svg>
