<?xml version="1.0" standalone="no"?>
<!DOCTYPE svg PUBLIC "-//W3C//DTD SVG 20010904//EN"
 "http://www.w3.org/TR/2001/REC-SVG-20010904/DTD/svg10.dtd">
<svg version="1.0" xmlns="http://www.w3.org/2000/svg"
 width="512.000000pt" height="512.000000pt" viewBox="0 0 512.000000 512.000000"
 preserveAspectRatio="xMidYMid meet">

<g transform="translate(0.000000,512.000000) scale(0.100000,-0.100000)"
fill="#000000" stroke="none">
<path d="M2340 5029 c-232 -26 -489 -102 -695 -204 -277 -137 -314 -179 -234
-269 l29 -34 -93 -75 c-408 -332 -657 -809 -702 -1349 -5 -59 -10 -78 -22 -78
-26 0 -118 -102 -131 -146 -8 -27 -12 -117 -12 -255 l-1 -214 -70 -45 c-82
-52 -179 -151 -228 -233 -18 -31 -47 -96 -64 -144 -28 -80 -31 -100 -31 -213
-1 -148 14 -215 76 -340 60 -121 188 -248 308 -308 111 -55 181 -72 317 -79
l112 -6 12 -29 c25 -60 129 -128 196 -128 15 0 21 -12 32 -62 27 -129 114
-270 218 -353 128 -101 267 -145 463 -145 l109 0 24 -53 c31 -69 86 -123 156
-156 l56 -26 400 0 400 0 63 34 c70 38 101 70 140 145 22 43 26 64 26 136 1
78 -2 90 -33 148 -37 69 -79 109 -151 144 -44 23 -50 23 -450 23 l-405 0 -52
-27 c-69 -37 -120 -89 -150 -155 l-24 -53 -113 0 c-184 0 -298 43 -401 151
-55 57 -108 153 -121 215 -6 30 -4 32 27 39 85 18 165 88 187 164 17 55 17
1368 0 1423 -17 59 -88 133 -145 152 -26 9 -55 16 -65 16 -16 0 -18 10 -18 96
0 53 -5 114 -12 136 -14 48 -76 121 -118 138 -29 12 -30 13 -24 69 40 396 219
737 515 986 53 44 108 86 122 94 25 14 29 12 76 -32 60 -56 79 -58 162 -16
159 80 353 123 559 123 206 0 400 -43 559 -123 83 -42 102 -40 162 16 47 44
51 46 76 32 52 -28 218 -175 285 -253 199 -231 324 -521 352 -822 5 -61 5 -62
-25 -74 -41 -17 -103 -90 -117 -138 -7 -22 -12 -83 -12 -136 0 -82 -2 -96 -16
-96 -77 0 -189 -88 -212 -166 -17 -59 -17 -1369 0 -1428 16 -55 99 -138 154
-154 23 -7 95 -12 160 -12 104 0 126 3 169 24 50 23 108 78 119 114 6 17 19
20 119 25 136 7 206 24 317 79 120 60 248 188 308 308 49 99 70 175 79 282 20
256 -119 525 -342 660 l-54 33 -1 220 c0 209 -1 222 -24 270 -23 51 -78 108
-114 119 -17 6 -21 19 -27 79 -52 567 -294 1024 -724 1372 l-71 57 29 33 c80
91 43 133 -234 270 -343 171 -763 246 -1135 204z m415 -159 c135 -15 287 -48
405 -87 109 -35 370 -156 370 -170 0 -5 -78 -86 -173 -181 l-173 -173 -74 31
c-349 144 -752 144 -1100 0 l-74 -31 -173 173 c-95 95 -173 176 -173 181 0 14
261 134 370 170 250 83 545 115 795 87z m-1136 -524 l53 -53 -78 -59 c-287
-216 -510 -562 -592 -919 -11 -49 -23 -117 -27 -150 -3 -33 -8 -75 -11 -92
l-5 -33 -80 0 -80 0 5 33 c3 17 8 61 11 97 9 96 52 282 91 388 78 215 215 438
371 602 95 100 257 240 278 240 6 0 35 -24 64 -54z m2037 -10 c244 -196 452
-485 558 -778 39 -106 82 -292 91 -388 3 -36 8 -80 11 -97 l5 -33 -80 0 -80 0
-5 33 c-3 17 -8 59 -11 92 -22 218 -127 493 -265 695 -107 156 -214 268 -368
385 l-64 48 53 53 c29 30 58 54 64 54 6 0 47 -29 91 -64z m-2561 -1481 c23
-22 25 -32 25 -120 0 -81 -2 -95 -16 -95 -65 0 -169 -69 -193 -128 l-12 -29
-112 -6 c-62 -2 -120 -8 -129 -12 -17 -7 -18 6 -18 179 0 252 -17 236 240 236
189 0 191 0 215 -25z m3360 0 c25 -24 25 -26 25 -211 0 -173 -1 -186 -17 -179
-10 4 -68 10 -130 12 l-112 6 -12 29 c-24 59 -128 128 -193 128 -14 0 -16 14
-16 95 0 88 2 98 25 120 24 25 26 25 215 25 189 0 191 0 215 -25z m-3120 -400
l25 -24 0 -671 0 -671 -25 -24 c-23 -24 -31 -25 -135 -25 -104 0 -112 1 -135
25 l-25 24 0 671 0 671 25 24 c23 24 31 25 135 25 104 0 112 -1 135 -25z
m2720 0 l25 -24 0 -671 0 -671 -25 -24 c-23 -24 -31 -25 -135 -25 -104 0 -112
1 -135 25 l-25 24 0 671 0 671 25 24 c23 24 31 25 135 25 104 0 112 -1 135
-25z m-3175 -696 l0 -562 -97 6 c-60 3 -122 14 -160 27 -256 89 -414 346 -375
611 26 180 141 337 305 418 92 45 148 58 255 60 l72 1 0 -561z m3546 550 c164
-29 320 -149 394 -303 184 -380 -89 -806 -517 -806 l-63 0 0 560 0 560 63 0
c35 0 90 -5 123 -11z m-1946 -1909 l0 -160 -135 0 c-152 0 -185 9 -228 59 -48
57 -48 145 0 202 43 50 73 58 226 59 l137 0 0 -160z m486 134 c53 -39 69 -71
69 -134 0 -63 -16 -95 -69 -134 -24 -19 -44 -21 -177 -24 l-149 -3 0 161 0
161 149 -3 c133 -3 153 -5 177 -24z"/>
</g>
</svg>
