<?xml version="1.0" standalone="no"?>
<!DOCTYPE svg PUBLIC "-//W3C//DTD SVG 20010904//EN"
 "http://www.w3.org/TR/2001/REC-SVG-20010904/DTD/svg10.dtd">
<svg version="1.0" xmlns="http://www.w3.org/2000/svg"
 width="4096.000000pt" height="3329.000000pt" viewBox="0 0 4096.000000 3329.000000"
 preserveAspectRatio="xMidYMid meet">

<g transform="translate(0.000000,3329.000000) scale(0.100000,-0.100000)"
fill="#000000" stroke="none">
<path d="M31225 32239 c-135 -18 -238 -43 -1300 -321 -588 -153 -2537 -661
-4330 -1129 -1793 -467 -3309 -865 -3370 -885 -623 -204 -1097 -730 -1240
-1375 -207 -935 323 -1872 1235 -2180 120 -41 342 -89 409 -89 29 0 41 -5 45
-17 16 -51 516 -1979 516 -1987 0 -6 -154 -69 -343 -141 -188 -71 -369 -143
-402 -158 -210 -99 -415 -298 -518 -502 l-26 -49 -1348 -352 c-741 -193 -2327
-607 -3523 -919 -1196 -312 -2231 -582 -2300 -600 -69 -18 -1990 -519 -4270
-1114 -2280 -595 -4556 -1188 -5057 -1320 l-913 -238 -82 24 c-192 55 -486 90
-673 78 -585 -35 -1095 -260 -1487 -658 -428 -434 -654 -1012 -635 -1622 11
-333 74 -593 217 -892 312 -652 920 -1107 1640 -1228 132 -23 441 -31 582 -16
492 53 945 263 1305 604 l88 84 1600 417 c880 230 2356 615 3280 856 924 241
2879 751 4345 1134 1466 382 3651 952 4855 1266 1205 314 2444 638 2754 719
l565 147 78 -47 c173 -104 351 -157 553 -166 121 -4 157 -1 509 51 208 31 385
56 391 56 7 0 18 -19 24 -42 13 -47 53 -200 99 -378 17 -63 44 -169 62 -235
17 -66 46 -176 64 -245 18 -69 90 -345 160 -613 70 -269 126 -490 124 -492 -2
-2 -33 -25 -71 -53 -400 -292 -684 -775 -746 -1272 -14 -109 -14 -361 0 -470
78 -627 478 -1180 1051 -1455 343 -165 750 -223 1117 -159 52 9 781 195 1620
414 3717 970 6175 1611 6656 1736 286 74 570 151 630 171 329 107 626 306 844
568 205 246 349 549 411 861 28 141 38 399 20 556 -52 474 -292 924 -655 1226
-277 232 -621 385 -954 424 -88 11 -105 16 -112 33 -5 11 -209 790 -455 1730
-245 941 -747 2864 -1115 4274 -367 1411 -667 2565 -666 2566 27 12 186 143
261 215 218 211 380 468 475 755 52 156 79 291 90 456 61 855 -465 1643 -1277
1913 -199 66 -329 87 -552 91 -102 2 -216 -1 -255 -6z m360 -730 c439 -61 792
-350 936 -766 79 -227 79 -509 0 -736 -100 -288 -302 -518 -576 -655 -108 -54
-136 -62 -715 -212 -278 -72 -1281 -334 -2230 -581 -949 -248 -1799 -470
-1890 -493 -91 -24 -235 -62 -320 -84 -1483 -388 -3602 -940 -3691 -962 -145
-35 -284 -46 -409 -31 -465 56 -845 378 -974 825 -146 508 88 1064 554 1314
41 23 100 50 130 62 60 24 755 206 5620 1475 1763 459 3232 839 3265 844 87
12 212 13 300 0z m259 -3161 c27 -101 61 -230 76 -288 15 -58 44 -168 64 -245
21 -77 51 -192 67 -255 17 -63 372 -1422 788 -3020 729 -2796 757 -2905 737
-2912 -12 -4 -1481 -388 -3265 -853 -1784 -465 -3263 -854 -3287 -864 -62 -28
-139 -104 -171 -169 -35 -71 -43 -192 -19 -275 29 -99 127 -199 229 -233 106
-35 107 -35 1182 246 4155 1085 5528 1441 5535 1433 6 -7 29 -90 142 -523 16
-63 38 -145 48 -182 17 -62 17 -67 2 -72 -9 -3 -1486 -388 -3282 -856 -1796
-468 -3677 -959 -4180 -1090 -503 -132 -915 -238 -916 -237 -1 1 -309 1181
-684 2622 -376 1441 -707 2710 -736 2820 -457 1748 -764 2930 -761 2938 2 6
84 31 182 57 364 96 745 195 3395 886 1488 388 3175 829 3750 979 575 151
1048 274 1051 274 3 1 27 -81 53 -181z m-8053 -6388 c224 -861 405 -1568 401
-1571 -9 -8 -637 -99 -683 -99 -134 0 -302 108 -364 234 -26 54 -600 2235
-615 2336 -18 130 30 270 125 359 66 63 89 74 373 182 130 49 257 98 282 109
25 10 51 18 59 17 10 -1 133 -457 422 -1567z m-1961 665 c0 -3 16 -67 36 -143
19 -75 49 -189 66 -252 16 -63 43 -167 60 -230 16 -63 42 -162 57 -220 15 -58
101 -386 190 -728 90 -343 159 -627 155 -631 -11 -10 470 116 -4519 -1185
-4437 -1157 -11560 -3015 -12064 -3147 -168 -43 -306 -77 -309 -74 -2 2 -67
244 -144 537 -464 1772 -437 1663 -419 1670 9 4 1078 284 2376 622 1298 338
2747 716 3220 840 473 123 2494 651 4490 1171 1997 521 4341 1133 5210 1360
869 228 1583 414 1588 414 4 1 7 -1 7 -4z m12915 -3140 c349 -52 654 -263 829
-573 49 -88 101 -223 122 -322 22 -102 25 -352 5 -445 -83 -395 -346 -711
-712 -855 -65 -26 -32 -17 -4815 -1264 -3255 -849 -4031 -1048 -4118 -1057
-206 -22 -412 17 -611 116 -312 154 -514 408 -606 760 -21 78 -24 113 -24 265
1 191 12 255 76 420 113 293 377 547 677 651 31 11 903 240 1937 510 1034 270
2389 623 3010 785 4046 1057 3846 1005 3950 1017 74 9 188 6 280 -8z m-30684
-1271 c52 -9 99 -21 105 -27 7 -7 159 -577 339 -1267 l327 -1255 -49 -43
c-167 -149 -438 -278 -690 -329 -124 -24 -413 -24 -538 1 -689 137 -1177 699
-1211 1396 -34 688 433 1318 1108 1496 175 46 433 58 609 28z"/>
<path d="M18735 10249 c-684 -40 -1339 -336 -1834 -829 -436 -433 -717 -992
-810 -1613 l-16 -110 -65 -22 c-316 -107 -579 -365 -688 -677 -50 -142 -55
-182 -102 -813 -30 -402 -60 -801 -120 -1593 -17 -218 -44 -572 -60 -787 -16
-214 -41 -543 -55 -730 -25 -332 -26 -386 -3 -530 22 -149 105 -337 207 -472
165 -219 414 -370 689 -418 74 -13 1348 -15 10557 -15 9158 0 10483 2 10556
15 491 86 856 476 911 975 10 92 8 147 -15 445 -34 422 -74 959 -127 1660 -22
297 -51 684 -65 860 -13 176 -38 502 -55 725 -16 223 -35 439 -41 480 -63 430
-390 786 -829 902 -44 12 -128 22 -204 26 l-130 7 -13 90 c-67 465 -253 907
-547 1300 -120 160 -393 433 -551 551 -413 309 -841 483 -1372 561 -111 16
-565 17 -7603 19 -4117 0 -7543 -2 -7615 -7z m15113 -740 c212 -23 460 -94
667 -193 573 -273 992 -787 1145 -1406 15 -63 31 -130 34 -147 l6 -33 -9441 0
-9440 0 7 38 c3 20 19 90 35 155 206 829 917 1466 1768 1582 78 11 1477 13
7609 14 5210 1 7543 -2 7610 -10z m2814 -2541 c104 -49 182 -142 207 -248 6
-25 24 -227 41 -450 17 -223 39 -520 50 -660 11 -140 36 -466 55 -725 20 -258
49 -645 65 -860 99 -1304 99 -1299 89 -1354 -22 -115 -103 -216 -214 -268
l-60 -28 -10460 0 -10460 0 -63 29 c-80 37 -162 123 -191 201 -28 74 -27 148
4 560 14 182 39 510 56 730 16 220 43 573 59 785 66 863 91 1194 120 1582 16
224 34 428 40 454 28 126 125 230 253 270 35 10 1818 12 10197 11 l10155 -2
57 -27z"/>
</g>
</svg>
