<?xml version="1.0" standalone="no"?>
<!DOCTYPE svg PUBLIC "-//W3C//DTD SVG 20010904//EN"
 "http://www.w3.org/TR/2001/REC-SVG-20010904/DTD/svg10.dtd">
<svg version="1.0" xmlns="http://www.w3.org/2000/svg"
 width="1918.000000pt" height="1867.000000pt" viewBox="0 0 1918.000000 1867.000000"
 preserveAspectRatio="xMidYMid meet">

<g transform="translate(0.000000,1867.000000) scale(0.100000,-0.100000)"
fill="#000000" stroke="none">
<path d="M9850 15744 c-1283 -51 -2457 -429 -3505 -1127 -833 -556 -1524
-1280 -2037 -2138 -234 -389 -255 -448 -201 -546 24 -45 94 -107 538 -474 285
-236 530 -431 554 -442 59 -26 130 -18 186 20 35 24 54 56 142 230 156 311
318 574 505 821 714 942 1753 1615 2894 1876 409 94 658 120 1124 120 392 0
518 -9 823 -60 1288 -217 2442 -924 3227 -1979 54 -71 128 -177 166 -235 78
-120 204 -333 199 -338 -2 -2 -266 -101 -588 -221 -322 -120 -597 -225 -611
-234 -45 -30 -79 -84 -84 -137 -6 -68 4 -114 35 -150 33 -40 3295 -2740 3336
-2762 41 -22 128 -23 170 -2 46 23 95 73 107 108 15 47 720 4215 720 4259 0
54 -21 96 -68 139 -39 36 -93 58 -140 58 -17 0 -870 -312 -1284 -469 -27 -10
-27 -9 -98 125 -438 838 -1113 1624 -1903 2217 -1028 773 -2273 1238 -3547
1326 -166 12 -534 20 -660 15z"/>
<path d="M3375 10152 c-45 -21 -85 -63 -103 -108 -6 -16 -172 -974 -368 -2129
-249 -1474 -354 -2114 -351 -2148 8 -94 99 -177 193 -177 31 0 213 63 676 235
348 129 637 233 643 231 5 -2 43 -66 84 -142 618 -1161 1590 -2128 2768 -2757
719 -384 1533 -640 2333 -736 306 -37 452 -45 800 -45 360 0 512 9 835 49
1924 242 3678 1335 4750 2960 128 194 224 354 301 502 46 87 54 111 54 156 0
100 2 99 -560 563 -283 235 -529 433 -547 440 -68 29 -181 7 -224 -42 -10 -10
-59 -102 -111 -204 -505 -992 -1290 -1767 -2283 -2255 -592 -291 -1152 -446
-1825 -506 -165 -15 -609 -15 -785 0 -1543 130 -2933 947 -3790 2226 -101 151
-238 376 -232 381 1 1 265 99 587 219 322 119 597 224 613 233 78 46 111 175
68 260 -17 33 -332 299 -1668 1405 -907 750 -1660 1371 -1675 1381 -41 27
-134 31 -183 8z"/>
</g>
</svg>
